<?xml version="1.0" encoding="utf-8"?>
<!-- Generator: Adobe Illustrator 23.0.1, SVG Export Plug-In . SVG Version: 6.00 Build 0)  -->
<svg version="1.1" id="Livello_1" xmlns="http://www.w3.org/2000/svg" xmlns:xlink="http://www.w3.org/1999/xlink" x="0px" y="0px"
	 viewBox="0 0 300 200" style="enable-background:new 0 0 300 200;" xml:space="preserve">
<g>
	<path d="M67.3,47.3C81.6,52.7,88.7,67.6,88.7,92c0,22.6-7.6,37.2-22.8,43.7c-4.6,2-10.6,2.9-18.1,2.9H13.3V122H20V61.3h-6.7V44.7
		H47c3.4,0,5.9,0,7.6,0.1c1.7,0,3.6,0.3,5.8,0.7C62.7,45.8,64.9,46.4,67.3,47.3z M58.7,116.1c2.4-4.3,3.6-12.5,3.6-24.8
		c0-12-1.2-20.2-3.6-24.7c-2-3.6-5.5-5.4-10.5-5.4h-3.6V122h3.5C52.9,122,56.5,120,58.7,116.1z"/>
	<path d="M122.2,72.9c9.2,0,16.2,2.8,21.1,8.4c4.9,5.6,7.3,14,7.3,25.4c0,22.3-9.5,33.5-28.4,33.5c-18.9,0-28.4-11.2-28.4-33.5
		c0-11.3,2.5-19.7,7.4-25.3C106.1,75.7,113.1,72.9,122.2,72.9z M116.8,120.3c0.8,2.7,2.6,4.1,5.4,4.1c2.8,0,4.5-1.4,5.3-4.1
		c0.8-2.7,1.1-7.3,1.1-13.9c0-6.7-0.4-11.3-1.3-13.9c-0.9-2.5-2.6-3.8-5.2-3.8c-2.6,0-4.3,1.3-5.2,3.9c-0.9,2.6-1.3,7.2-1.3,13.8
		C115.6,112.9,116,117.6,116.8,120.3z"/>
	<path d="M217.2,123.7v14.9H196l-14.9-26.4v26.4h-27.1v-14.9h5.5V59.5h-6V44.7h27.6v61.6l12.5-16.9h-5.9V74.5h28.1v14.9h-6.7
		l-9.4,12.5l12.1,21.8H217.2z"/>
	<path d="M286.9,123.7v14.9H261v-7.6c-1.1,2.3-3.2,4.4-6.3,6.2c-3.1,1.8-6.8,2.7-11.1,2.7c-5.6,0-10.1-1.9-13.3-5.6
		c-3.2-3.7-4.8-8.5-4.8-14.3V89.4h-5.6V74.5h27.7v42.9c0,1.8,0.5,3.2,1.5,4.4c1,1.1,2.4,1.7,4.2,1.7c4.2,0,6.3-2.7,6.3-8.2V89.4
		h-5.6V74.5h27.2v49.2H286.9z"/>
</g>
</svg>
